<svg width="200" height="84" viewBox="0 0 200 84" fill="none" xmlns="http://www.w3.org/2000/svg">
<path d="M49.626 64.0215C49.2537 62.5256 48.9187 61.1841 48.5854 59.841C47.6179 55.9451 46.6488 52.0508 45.6862 48.1532C45.4569 47.2248 45.4716 47.215 46.4016 47.4459C51.2033 48.6427 56.0049 49.8443 60.8065 51.0459C61.0683 51.111 61.3236 51.1988 61.7382 51.324C60.7724 52.2931 59.8813 53.1906 58.9854 54.0833C58.7772 54.2898 58.5236 54.1809 58.2829 54.1597C54.5854 53.841 51.8943 56.6687 52.4455 60.337C52.5155 60.8069 52.4195 61.0898 52.1024 61.4101C51.2976 62.2199 50.5268 63.0654 49.626 64.0215Z" fill="#E43B0A"/>
<path d="M17.8033 51.3859C21.0277 50.5859 24.1529 49.8087 27.2797 49.038C29.4016 48.5144 31.5285 48.0168 33.6439 47.4705C34.1431 47.342 34.2862 47.3973 34.1529 47.9242C32.8699 53.0087 31.5951 58.0949 30.3171 63.1794C30.2911 63.2835 30.2358 63.3794 30.2 63.4673C29.3122 62.612 28.4374 61.7616 27.5512 60.9209C27.2472 60.6331 27.4049 60.2981 27.4439 59.9925C27.8098 57.1827 25.787 54.6689 23.1675 54.2152C22.5366 54.1063 21.9106 54.0851 21.2976 54.2364C20.9415 54.3242 20.6277 54.316 20.3854 54.0705C19.5317 53.2087 18.7008 52.3258 17.8016 51.3876L17.8033 51.3859Z" fill="#831B67"/>
<path d="M18.0243 32.0547C19.0064 31.0953 19.9023 30.253 20.7576 29.3717C21.1316 28.9847 21.5365 29.1945 21.9137 29.2254C24.9755 29.4742 27.7105 27.0416 27.5007 23.9717C27.4145 22.6986 27.7658 21.936 28.691 21.2238C29.2454 20.7977 29.7121 20.2563 30.304 19.6855C31.6731 25.2059 33.008 30.5912 34.3836 36.1408C28.9007 34.7701 23.5414 33.4303 18.0243 32.0514V32.0547Z" fill="#2E6C92"/>
<path d="M48.6894 19.1865C45.7284 23.9117 42.8748 28.4629 39.9756 33.089C39.174 32.1589 38.6471 31.1069 38.0227 30.1296C35.8374 26.7069 33.6959 23.2581 31.5317 19.8223C31.4293 19.6597 31.2601 19.5101 31.3707 19.315C31.4845 19.115 31.7187 19.2028 31.8992 19.2028C32.8293 19.2077 33.761 19.2418 34.691 19.2304C35.0894 19.2256 35.3593 19.3638 35.5951 19.676C37.3041 21.9443 41.4032 22.8955 43.6439 20.2548C44.5691 19.1654 45.5236 19.1914 46.6439 19.1865C47.2439 19.1833 47.8439 19.1865 48.6894 19.1865Z" fill="#08C2A3"/>
<path d="M17.7301 33.0664C22.2927 35.9168 26.8537 38.7688 31.5138 41.681C29.5464 42.9201 27.709 44.0859 25.8634 45.2404C23.3675 46.8014 20.8651 48.3542 18.3659 49.9119C18.2065 50.0111 18.0602 50.2127 17.8651 50.1331C17.6 50.0241 17.7447 49.7493 17.7333 49.5526C17.709 49.1152 17.7431 48.6762 17.722 48.2388C17.6651 47.0599 17.8065 46.1298 18.8325 45.1688C21.0602 43.0827 20.5675 39.3445 18.026 37.5006C17.5626 37.164 17.413 36.8209 17.4293 36.2859C17.4602 35.2501 17.439 34.2127 17.439 33.177C17.5366 33.1396 17.6325 33.1038 17.7301 33.0664Z" fill="#7F68F1"/>
<path d="M62.1186 35.2652C62.1186 35.566 62.0844 35.8717 62.1251 36.1677C62.2161 36.8359 61.9771 37.3189 61.4324 37.7059C59.1121 39.353 58.8714 43.7075 61.5787 45.7075C62.1755 46.1481 62.421 46.6099 62.3316 47.3546C62.2454 48.0831 62.2844 48.8311 62.3088 49.5693C62.3299 50.2116 62.1364 50.2668 61.621 49.94C59.1072 48.3465 56.5836 46.7709 54.0584 45.1969C52.4828 44.2148 50.9023 43.2424 49.3186 42.2766C48.4568 41.7514 48.447 41.6555 49.3072 41.1172C53.2682 38.6359 57.2275 36.1563 61.1934 33.6831C61.434 33.5335 61.6795 33.2197 61.9901 33.4294C62.2405 33.5985 62.1088 33.9368 62.1186 34.2002C62.1332 34.5546 62.1218 34.9124 62.1218 35.2685L62.1186 35.2652Z" fill="#E9C61C"/>
<path d="M65.2683 45.5159C63.0114 45.5159 61.3269 43.8427 61.3236 41.5972C61.3187 39.4102 63.0683 37.6427 65.2569 37.6232C67.5139 37.6037 69.187 39.3224 69.187 41.6622C69.187 43.8378 67.4797 45.5159 65.2683 45.5159Z" fill="#E9C61C"/>
<path d="M39.8503 70.9289C37.7121 70.9224 35.9967 69.2134 35.9853 67.0801C35.9739 64.7614 37.665 63.0476 39.9284 63.0866C42.1755 63.1256 43.8633 64.8378 43.8536 67.0671C43.8438 69.3061 42.1544 70.9354 39.8487 70.9289H39.8503Z" fill="#F14966"/>
<path d="M14.5626 45.5907C12.3236 45.5956 10.6536 43.9111 10.6504 41.646C10.6471 39.5241 12.4146 37.7501 14.5642 37.7192C16.7187 37.6867 18.5268 39.4883 18.5333 41.672C18.5382 43.8802 16.8097 45.5875 14.5642 45.5907H14.5626Z" fill="#7F68F1"/>
<path d="M61.8308 59.6025C61.795 61.822 60.0275 63.5082 57.8048 63.4431C55.7072 63.383 54.0162 61.6464 54.0503 59.5846C54.0861 57.4789 55.8666 55.6935 57.9154 55.713C60.0893 55.7326 61.8649 57.4968 61.8308 59.6025Z" fill="#E43B0A"/>
<path d="M22.0097 27.6544C19.9609 27.6805 18.1121 25.887 18.0763 23.8431C18.0406 21.7731 19.8178 19.8723 21.8243 19.8366C24.0064 19.7975 25.917 21.5992 25.9137 23.6935C25.9121 25.7927 24.1007 27.6284 22.008 27.6544H22.0097Z" fill="#2E6C92"/>
<path d="M57.8113 19.8616C60.0276 19.8909 61.7885 21.6698 61.7544 23.8438C61.7219 25.8698 59.9023 27.6015 57.8357 27.5738C55.678 27.5446 53.9479 25.8421 53.9479 23.7446C53.9479 21.6454 55.7495 19.834 57.8129 19.8616H57.8113Z" fill="#079A16"/>
<path d="M21.948 63.5264C19.8114 63.5134 18.0635 61.7785 18.0781 59.6874C18.0944 57.5882 19.8944 55.8126 22.0277 55.7931C24.0391 55.7752 25.9269 57.6679 25.9122 59.6874C25.896 61.8321 24.1334 63.5394 21.948 63.5264Z" fill="#831B67"/>
<path d="M48.7463 64.2144C47.3495 64.2144 46.117 64.2193 44.8845 64.2095C44.6373 64.2095 44.5154 63.99 44.3918 63.8128C42.4259 61.029 39.3723 61.2388 37.1625 62.3737C36.6698 62.6274 35.9902 63.0225 35.6763 63.6437C35.4129 64.164 35.0015 64.2681 34.4552 64.2258C33.556 64.1559 32.6519 64.1494 31.7479 64.112C31.4341 64.0973 31.0666 64.1201 31.3804 63.6193C32.7625 61.4225 34.1398 59.2225 35.5219 57.0258C35.5479 56.9851 38.2438 52.8323 39.4422 50.725C39.6861 50.2973 39.9788 50.3461 40.2341 50.7217C40.7349 51.4599 41.2438 52.1949 41.717 52.951C42.9837 54.977 47.569 62.3949 48.743 64.2111L48.7463 64.2144Z" fill="#F14966"/>
<path d="M61.9089 32.0823C56.3967 33.44 51.0129 34.7669 45.465 36.1327C46.8633 30.5409 48.2292 25.0807 49.5707 19.7148C50.5089 20.588 51.4227 21.4449 52.3414 22.2953C52.6194 22.5522 52.4861 22.8449 52.4536 23.1392C52.0552 26.6872 54.7235 29.6173 58.104 29.2303C58.9772 29.1311 59.4666 29.414 59.9707 30.0026C60.5544 30.6807 61.1885 31.3148 61.9089 32.0839V32.0823Z" fill="#029C11"/>
<path d="M43.8552 16.267C43.8357 18.4816 42.1138 20.1954 39.9447 20.1629C37.7252 20.1288 35.9788 18.3271 35.9999 16.093C36.0195 14.0572 37.756 12.319 39.7691 12.3223C42.2243 12.3255 43.878 13.9206 43.8552 16.2654V16.267Z" fill="#02CEA5"/>
<path d="M82.8829 38.079H77.9707V25.8953C78.1853 25.853 78.5138 25.7977 78.9561 25.7343C79.3967 25.6692 79.8227 25.6367 80.2325 25.6367C81.1805 25.6367 81.8585 25.7977 82.2683 26.1213C82.678 26.4448 82.8829 27.0579 82.8829 27.9635V38.079ZM77.9707 31.9392H82.8829V45.3505L80.5886 45.6091C79.7918 45.6091 79.1561 45.3717 78.6813 44.8985C78.2065 44.4253 77.9707 43.7896 77.9707 42.9912V31.9392ZM80.5886 45.6091V41.6026H90.7349C90.8862 41.8188 91.0146 42.0936 91.1235 42.427C91.2309 42.7619 91.2845 43.1327 91.2845 43.5424C91.2845 44.2318 91.1333 44.7489 90.8325 45.0936C90.5301 45.4383 90.1105 45.6107 89.5723 45.6107H80.5886V45.6091Z" fill="#24586D"/>
<path d="M109.382 37.7895C109.382 39.4692 109.042 40.9293 108.364 42.1683C107.686 43.4074 106.732 44.3602 105.504 45.0285C104.276 45.6968 102.832 46.0301 101.174 46.0301C99.5154 46.0301 98.0992 45.7017 96.8601 45.0448C95.6211 44.3878 94.6634 43.4399 93.9837 42.2009C93.3057 40.9618 92.9658 39.4919 92.9658 37.7895C92.9658 36.087 93.3105 34.6285 94 33.4106C94.6894 32.1944 95.6536 31.2448 96.8927 30.5667C98.1317 29.8887 99.5593 29.5488 101.174 29.5488C102.789 29.5488 104.244 29.8887 105.472 30.5667C106.699 31.2448 107.659 32.2041 108.348 33.4431C109.037 34.6822 109.382 36.1309 109.382 37.7895ZM101.174 33.3309C100.161 33.3309 99.3593 33.7179 98.7658 34.4935C98.1723 35.2692 97.8764 36.3683 97.8764 37.7895C97.8764 39.2106 98.1674 40.3374 98.7496 41.1017C99.3317 41.8675 100.14 42.2496 101.174 42.2496C102.208 42.2496 103.016 41.861 103.598 41.0854C104.18 40.3098 104.472 39.2106 104.472 37.7895C104.472 36.3683 104.18 35.2968 103.598 34.5098C103.016 33.7244 102.208 33.3309 101.174 33.3309Z" fill="#24586D"/>
<path d="M117.234 39.5661L112.452 39.4685V24.5059C112.645 24.4409 112.936 24.3774 113.325 24.3124C113.714 24.2474 114.133 24.2148 114.585 24.2148C115.512 24.2148 116.185 24.3758 116.605 24.6994C117.024 25.023 117.236 25.6148 117.236 26.4766V39.5644L117.234 39.5661ZM112.45 36.9807L117.232 37.0783V45.5124C117.016 45.5774 116.715 45.636 116.328 45.6896C115.941 45.7433 115.52 45.7709 115.068 45.7709C114.164 45.7709 113.501 45.61 113.081 45.2864C112.662 44.9628 112.45 44.3823 112.45 43.5417V36.9823V36.9807ZM119.302 39.34L115.844 37.1433L123.148 29.7758C124.117 29.797 124.897 30.023 125.491 30.4539C126.083 30.8848 126.38 31.423 126.38 32.0701C126.38 32.6311 126.187 33.1319 125.798 33.5726C125.41 34.0148 124.818 34.5807 124.021 35.2685L119.302 39.34ZM116.037 37.8213L119.85 36.1417L126.992 43.0571C126.906 43.9189 126.647 44.5921 126.216 45.0766C125.785 45.5612 125.171 45.8035 124.374 45.8035C123.792 45.8035 123.258 45.6587 122.774 45.3677C122.289 45.0766 121.777 44.597 121.239 43.9303L116.036 37.823L116.037 37.8213Z" fill="#24586D"/>
<path d="M135.977 29.5488C138.218 29.5488 140.005 30.0171 141.341 30.9553C142.676 31.8919 143.345 33.3423 143.345 35.3017V42.6366C143.345 43.1748 143.205 43.6122 142.925 43.9456C142.646 44.2805 142.289 44.5651 141.859 44.8025C141.213 45.1895 140.41 45.4968 139.45 45.7228C138.491 45.9488 137.398 46.0626 136.171 46.0626C133.974 46.0626 132.223 45.6318 130.919 44.77C129.615 43.9082 128.964 42.6269 128.964 40.9244C128.964 39.4594 129.416 38.3342 130.322 37.5472C131.226 36.7618 132.572 36.2822 134.361 36.1098L138.659 35.6578V35.2708C138.659 34.5391 138.372 34.0106 137.802 33.687C137.231 33.3635 136.418 33.2025 135.363 33.2025C134.543 33.2025 133.741 33.3 132.954 33.4935C132.167 33.687 131.462 33.9131 130.837 34.1716C130.579 33.9992 130.358 33.7358 130.176 33.3797C129.992 33.0236 129.901 32.6529 129.901 32.2643C129.901 31.3602 130.397 30.7033 131.387 30.2935C132.011 30.035 132.738 29.8464 133.569 29.7277C134.398 29.609 135.202 29.5505 135.977 29.5505V29.5488ZM136.171 42.4757C136.667 42.4757 137.156 42.4269 137.641 42.3309C138.125 42.2334 138.475 42.1212 138.691 41.9911V38.8887L135.977 39.1472C135.244 39.1911 134.663 39.3407 134.233 39.5992C133.802 39.8578 133.587 40.2448 133.587 40.7635C133.587 41.2822 133.792 41.6952 134.202 42.0074C134.611 42.3196 135.268 42.4757 136.172 42.4757H136.171Z" fill="#24586D"/>
<path d="M151.811 34.2009V38.2399H147.029V33.6188C147.029 33.0155 147.174 32.5033 147.465 32.0838C147.756 31.6643 148.159 31.2919 148.676 30.9684C149.387 30.5375 150.244 30.1976 151.245 29.9505C152.247 29.7033 153.298 29.5781 154.397 29.5781C156.593 29.5781 157.693 30.3115 157.693 31.7749C157.693 32.1196 157.644 32.4432 157.548 32.744C157.45 33.0464 157.338 33.305 157.208 33.5196C156.992 33.4773 156.728 33.4383 156.416 33.4058C156.104 33.3732 155.764 33.357 155.398 33.357C154.753 33.357 154.106 33.4334 153.46 33.583C152.815 33.7342 152.265 33.9391 151.811 34.1976V34.2009ZM147.028 37.0123L151.81 37.1098V45.5115C151.593 45.5765 151.293 45.635 150.906 45.6887C150.519 45.7423 150.098 45.77 149.645 45.77C148.74 45.77 148.078 45.609 147.658 45.2854C147.239 44.9619 147.028 44.3814 147.028 43.5407V37.0123Z" fill="#24586D"/>
<path d="M164.867 37.8217H160.117V26.2201C160.332 26.155 160.634 26.0851 161.021 26.0103C161.408 25.9355 161.818 25.8965 162.249 25.8965C163.176 25.8965 163.842 26.0575 164.252 26.381C164.662 26.7046 164.867 27.2965 164.867 28.1583V37.8201V37.8217ZM160.115 37.0136H164.865V40.4721C164.865 41.0753 165.058 41.5176 165.447 41.7973C165.834 42.077 166.384 42.2168 167.096 42.2168C167.419 42.2168 167.769 42.1794 168.146 42.103C168.524 42.0282 168.841 41.9371 169.099 41.8282C169.271 42.0217 169.428 42.2591 169.567 42.5388C169.707 42.8184 169.777 43.142 169.777 43.5079C169.777 44.2412 169.475 44.8445 168.872 45.3176C168.268 45.7908 167.255 46.0282 165.834 46.0282C164.024 46.0282 162.619 45.6184 161.616 44.8005C160.615 43.9827 160.114 42.6461 160.114 40.794V37.0136H160.115ZM163.153 34.0737V30.3892H169.358C169.465 30.5615 169.572 30.8087 169.681 31.1323C169.789 31.4558 169.842 31.8103 169.842 32.1989C169.842 32.8445 169.698 33.3192 169.406 33.6201C169.115 33.9225 168.722 34.0721 168.228 34.0721H163.154L163.153 34.0737Z" fill="#24586D"/>
<path d="M177.566 39.501H172.784V24.5059C172.977 24.4409 173.268 24.3774 173.657 24.3124C174.045 24.2474 174.465 24.2148 174.917 24.2148C175.844 24.2148 176.517 24.3758 176.937 24.6994C177.356 25.023 177.567 25.6148 177.567 26.4766V39.4994L177.566 39.501ZM172.784 37.0132H177.566V45.5124C177.35 45.5774 177.049 45.636 176.662 45.6896C176.275 45.7433 175.854 45.7709 175.402 45.7709C174.498 45.7709 173.834 45.61 173.415 45.2864C172.995 44.9628 172.784 44.3823 172.784 43.5417V37.0132ZM187.616 38.9531H182.802V36.0766C182.802 35.0864 182.548 34.3807 182.042 33.9596C181.535 33.54 180.894 33.3287 180.119 33.3287C179.429 33.3287 178.81 33.4571 178.26 33.7157C177.711 33.9742 177.242 34.2652 176.854 34.5888L176.725 30.7108C177.221 30.4311 177.834 30.1677 178.567 29.9189C179.299 29.6718 180.107 29.5466 180.992 29.5466C183.039 29.5466 184.654 30.0685 185.839 31.114C187.024 32.1596 187.616 33.727 187.616 35.8165V38.9514V38.9531ZM182.802 37.0132H187.616V45.5124C187.402 45.5774 187.099 45.636 186.712 45.6896C186.325 45.7433 185.904 45.7709 185.452 45.7709C184.525 45.7709 183.852 45.61 183.432 45.2864C183.013 44.9628 182.802 44.3823 182.802 43.5417V37.0132Z" fill="#24586D"/>
<path d="M81.6536 53.097C81.6065 53.0401 81.5333 52.9799 81.4325 52.9149C81.3317 52.8499 81.2146 52.7913 81.0829 52.736C80.9512 52.6824 80.8065 52.6352 80.6488 52.5962C80.491 52.5572 80.3301 52.5377 80.1642 52.5377C79.8016 52.5377 79.5333 52.6043 79.3577 52.7377C79.1821 52.871 79.0943 53.0564 79.0943 53.2938C79.0943 53.4694 79.1431 53.6076 79.2422 53.71C79.3398 53.8125 79.491 53.897 79.6959 53.9604C79.9008 54.0255 80.1528 54.0938 80.452 54.1653C80.8292 54.2531 81.1544 54.3588 81.426 54.4824C81.6975 54.6059 81.9073 54.7685 82.0536 54.9685C82.2 55.1685 82.2748 55.4368 82.2748 55.7718C82.2748 56.045 82.2211 56.2807 82.1154 56.4824C82.0097 56.6824 81.8634 56.8466 81.678 56.9718C81.4927 57.0986 81.278 57.1913 81.0341 57.2531C80.7902 57.3149 80.5301 57.3458 80.2504 57.3458C79.9707 57.3458 79.704 57.3165 79.4325 57.2564C79.161 57.1962 78.9024 57.1116 78.6569 57.0011C78.4114 56.8905 78.1821 56.7539 77.9707 56.5946L78.374 55.8499C78.4357 55.9165 78.5317 55.9913 78.6618 56.071C78.7902 56.1507 78.9398 56.2271 79.1073 56.3003C79.2748 56.3734 79.4585 56.4336 79.6585 56.4824C79.8569 56.5311 80.0601 56.5555 80.2666 56.5555C80.613 56.5555 80.878 56.4954 81.0618 56.3751C81.2455 56.2547 81.3366 56.0791 81.3366 55.8482C81.3366 55.6677 81.2764 55.523 81.1544 55.4125C81.0325 55.3019 80.8601 55.2076 80.6341 55.1312C80.4097 55.0547 80.1398 54.9767 79.8244 54.9003C79.4618 54.8076 79.1593 54.7019 78.917 54.5832C78.6731 54.4645 78.4927 54.3149 78.374 54.1344C78.2553 53.9539 78.1951 53.7198 78.1951 53.432C78.1951 53.071 78.2813 52.7669 78.4553 52.5165C78.6276 52.2661 78.8683 52.0791 79.1723 51.9523C79.478 51.8255 79.8162 51.7637 80.1886 51.7637C80.4374 51.7637 80.6731 51.7913 80.8975 51.845C81.1219 51.8986 81.3317 51.9734 81.5252 52.0661C81.7187 52.1588 81.891 52.2645 82.0406 52.3848L81.6536 53.0986V53.097Z" fill="#838484"/>
<path d="M84.865 57.383C84.5446 57.383 84.2568 57.3277 84.0048 57.2171C83.7512 57.1066 83.5316 56.9553 83.3463 56.7635C83.1609 56.5716 83.0162 56.3505 82.9154 56.1017C82.8146 55.8529 82.7642 55.5895 82.7642 55.3131C82.7642 54.9293 82.852 54.5797 83.0276 54.2627C83.2032 53.9456 83.4503 53.6919 83.7674 53.5033C84.0861 53.3147 84.452 53.2188 84.865 53.2188C85.278 53.2188 85.6617 53.3147 85.9707 53.5066C86.278 53.6984 86.517 53.9505 86.6877 54.2627C86.8585 54.5748 86.943 54.9098 86.943 55.2692C86.943 55.3309 86.9398 55.3879 86.9349 55.4415C86.93 55.4952 86.9251 55.5375 86.9186 55.5683H83.6617C83.6877 55.809 83.7577 56.0155 83.8715 56.1927C83.9853 56.3683 84.1333 56.5066 84.3138 56.6057C84.4942 56.7049 84.6861 56.7553 84.8877 56.7553C85.1203 56.7553 85.3381 56.6984 85.543 56.5846C85.7479 56.4708 85.8861 56.3212 85.9577 56.1342L86.6861 56.344C86.5983 56.5407 86.4633 56.7179 86.2829 56.8757C86.1024 57.0334 85.891 57.157 85.6503 57.248C85.4097 57.3391 85.1479 57.383 84.8633 57.383H84.865ZM83.6471 55.0106H86.0975C86.0764 54.7781 86.0113 54.5748 85.8991 54.4025C85.7886 54.2301 85.6422 54.0952 85.4617 53.996C85.2812 53.8968 85.0845 53.848 84.8731 53.848C84.6617 53.848 84.4585 53.8968 84.2796 53.996C84.1007 54.0952 83.9544 54.2301 83.8422 54.4025C83.7284 54.5748 83.6633 54.7781 83.6487 55.0106H83.6471Z" fill="#838484"/>
<path d="M89.9137 53.9865C89.5885 53.9914 89.2974 54.0662 89.0405 54.2109C88.7852 54.3557 88.6031 54.5605 88.4942 54.8239V57.3052H87.6405V53.2809H88.4242V54.1491C88.569 53.876 88.7543 53.6548 88.982 53.4857C89.2096 53.3183 89.447 53.2256 89.6958 53.2109H89.8308C89.8649 53.2109 89.8909 53.2142 89.9121 53.2191V53.9865H89.9137Z" fill="#838484"/>
<path d="M91.6667 57.3056L90.1317 53.2812H91.0163L92.1642 56.5219L93.3268 53.2812H94.1415L92.6065 57.3056H91.6683H91.6667Z" fill="#838484"/>
<path d="M96.4585 57.383C96.1382 57.383 95.8503 57.3277 95.5983 57.2171C95.3447 57.1066 95.1251 56.9553 94.9398 56.7635C94.7544 56.5716 94.6097 56.3505 94.5089 56.1017C94.4081 55.8529 94.3577 55.5895 94.3577 55.3131C94.3577 54.9293 94.4455 54.5797 94.6211 54.2627C94.7967 53.9456 95.0438 53.6919 95.3609 53.5033C95.6796 53.3147 96.0455 53.2188 96.4585 53.2188C96.8715 53.2188 97.2552 53.3147 97.5642 53.5066C97.8715 53.6984 98.1105 53.9505 98.2812 54.2627C98.452 54.5748 98.5365 54.9098 98.5365 55.2692C98.5365 55.3309 98.5333 55.3879 98.5284 55.4415C98.5235 55.4952 98.5186 55.5375 98.5121 55.5683H95.2552C95.2812 55.809 95.3512 56.0155 95.465 56.1927C95.5788 56.3683 95.7268 56.5066 95.9073 56.6057C96.0878 56.7049 96.2796 56.7553 96.4812 56.7553C96.7138 56.7553 96.9317 56.6984 97.1365 56.5846C97.3414 56.4708 97.4796 56.3212 97.5512 56.1342L98.2796 56.344C98.1918 56.5407 98.0569 56.7179 97.8764 56.8757C97.6959 57.0334 97.4845 57.157 97.2438 57.248C97.0032 57.3391 96.7414 57.383 96.4569 57.383H96.4585ZM95.2422 55.0106H97.6926C97.6715 54.7781 97.6065 54.5748 97.4943 54.4025C97.3837 54.2301 97.2373 54.0952 97.0569 53.996C96.8764 53.8968 96.6796 53.848 96.4682 53.848C96.2569 53.848 96.0536 53.8968 95.8747 53.996C95.6959 54.0952 95.5495 54.2301 95.4373 54.4025C95.3235 54.5748 95.2585 54.7781 95.2438 55.0106H95.2422Z" fill="#838484"/>
<path d="M105.068 52.5683H103.237V57.3065H102.361V52.5683H100.524V51.8008H105.068V52.5683Z" fill="#838484"/>
<path d="M106.704 57.3846C106.384 57.3846 106.096 57.3293 105.844 57.2188C105.59 57.1082 105.372 56.957 105.189 56.7618C105.005 56.5667 104.863 56.3456 104.766 56.0968C104.668 55.848 104.618 55.5862 104.618 55.3098C104.618 55.0334 104.667 54.7553 104.766 54.5066C104.863 54.2578 105.005 54.0366 105.189 53.8415C105.372 53.6464 105.592 53.4952 105.847 53.3846C106.102 53.274 106.389 53.2188 106.704 53.2188C107.019 53.2188 107.31 53.274 107.561 53.3846C107.811 53.4952 108.031 53.648 108.216 53.8415C108.402 54.0366 108.545 54.2578 108.642 54.5066C108.74 54.7553 108.79 55.022 108.79 55.3098C108.79 55.5976 108.741 55.8496 108.642 56.0968C108.545 56.3456 108.403 56.5667 108.219 56.7618C108.036 56.957 107.816 57.1082 107.561 57.2188C107.306 57.3293 107.019 57.3846 106.704 57.3846ZM105.494 55.3033C105.494 55.5635 105.548 55.796 105.657 55.9992C105.766 56.2025 105.91 56.3635 106.091 56.4805C106.271 56.5976 106.473 56.6561 106.696 56.6561C106.919 56.6561 107.135 56.5976 107.317 56.4805C107.497 56.3635 107.642 56.2009 107.751 55.9911C107.86 55.7813 107.914 55.5521 107.914 55.3033C107.914 55.0545 107.86 54.8171 107.751 54.6106C107.642 54.4041 107.496 54.2431 107.314 54.1244C107.13 54.0074 106.927 53.9488 106.706 53.9488C106.484 53.9488 106.273 54.0106 106.093 54.1326C105.912 54.2545 105.767 54.4188 105.658 54.622C105.549 54.8253 105.496 55.0529 105.496 55.3017L105.494 55.3033Z" fill="#838484"/>
<path d="M111.156 57.3846C110.881 57.3846 110.631 57.3293 110.403 57.2171C110.176 57.1066 109.98 56.9553 109.818 56.7635C109.655 56.5716 109.53 56.3521 109.442 56.1049C109.354 55.8561 109.311 55.596 109.311 55.3212C109.311 55.0318 109.356 54.7602 109.446 54.5066C109.537 54.2529 109.665 54.0301 109.832 53.835C110 53.6415 110.198 53.4903 110.426 53.3814C110.654 53.2724 110.907 53.2188 111.185 53.2188C111.511 53.2188 111.797 53.2935 112.042 53.4431C112.288 53.5927 112.491 53.7927 112.65 54.0399V53.2805H113.403V57.1992C113.403 57.5895 113.309 57.9212 113.12 58.1944C112.932 58.4659 112.675 58.6757 112.348 58.8188C112.023 58.9618 111.657 59.035 111.254 59.035C110.803 59.035 110.431 58.957 110.133 58.8025C109.836 58.648 109.584 58.435 109.377 58.1667L109.85 57.7163C110.016 57.9326 110.219 58.0984 110.463 58.2122C110.706 58.3261 110.971 58.383 111.255 58.383C111.488 58.383 111.702 58.3423 111.899 58.2594C112.096 58.1765 112.254 58.0496 112.372 57.8789C112.491 57.7066 112.551 57.4903 112.551 57.2269V56.6139C112.406 56.8513 112.208 57.0399 111.954 57.1765C111.701 57.3131 111.434 57.3814 111.156 57.3814V57.3846ZM111.434 56.6952C111.563 56.6952 111.688 56.6724 111.806 56.6253C111.925 56.5781 112.036 56.5196 112.137 56.4464C112.237 56.3732 112.324 56.2887 112.397 56.1911C112.468 56.0935 112.52 55.9927 112.551 55.8887V54.8269C112.485 54.6513 112.39 54.4984 112.268 54.37C112.146 54.2415 112.008 54.1391 111.854 54.0643C111.699 53.9895 111.538 53.9521 111.372 53.9521C111.187 53.9521 111.019 53.9927 110.872 54.0724C110.724 54.1521 110.598 54.2578 110.496 54.3911C110.392 54.5228 110.312 54.6708 110.255 54.8366C110.198 55.0025 110.171 55.1732 110.171 55.3488C110.171 55.5244 110.203 55.7017 110.268 55.8643C110.333 56.0269 110.423 56.1716 110.537 56.2984C110.65 56.4253 110.784 56.5228 110.937 56.5927C111.089 56.6627 111.255 56.6968 111.437 56.6968L111.434 56.6952Z" fill="#838484"/>
<path d="M116.267 57.383C115.946 57.383 115.659 57.3277 115.407 57.2171C115.153 57.1066 114.933 56.9553 114.748 56.7635C114.563 56.5716 114.418 56.3505 114.317 56.1017C114.216 55.8529 114.166 55.5895 114.166 55.3131C114.166 54.9293 114.254 54.5797 114.429 54.2627C114.605 53.9456 114.852 53.6919 115.169 53.5033C115.488 53.3147 115.854 53.2188 116.267 53.2188C116.68 53.2188 117.063 53.3147 117.372 53.5066C117.68 53.6984 117.919 53.9505 118.089 54.2627C118.26 54.5748 118.345 54.9098 118.345 55.2692C118.345 55.3309 118.342 55.3879 118.337 55.4415C118.332 55.4952 118.327 55.5375 118.32 55.5683H115.063C115.089 55.809 115.159 56.0155 115.273 56.1927C115.387 56.3683 115.535 56.5066 115.715 56.6057C115.896 56.7049 116.088 56.7553 116.289 56.7553C116.522 56.7553 116.74 56.6984 116.945 56.5846C117.15 56.4708 117.288 56.3212 117.359 56.1342L118.088 56.344C118 56.5407 117.865 56.7179 117.685 56.8757C117.504 57.0334 117.293 57.157 117.052 57.248C116.811 57.3391 116.55 57.383 116.265 57.383H116.267ZM115.049 55.0106H117.499C117.478 54.7781 117.413 54.5748 117.301 54.4025C117.19 54.2301 117.044 54.0952 116.863 53.996C116.683 53.8968 116.486 53.848 116.275 53.848C116.063 53.848 115.86 53.8968 115.681 53.996C115.502 54.0952 115.356 54.2301 115.244 54.4025C115.13 54.5748 115.065 54.7781 115.05 55.0106H115.049Z" fill="#838484"/>
<path d="M121.26 57.1118C121.193 57.1427 121.102 57.1801 120.989 57.224C120.875 57.2679 120.751 57.3053 120.616 57.3362C120.481 57.3671 120.341 57.3834 120.197 57.3834C120.021 57.3834 119.858 57.3508 119.709 57.2874C119.559 57.2224 119.439 57.1232 119.348 56.9899C119.257 56.8565 119.213 56.6842 119.213 56.4728V53.9411H118.67V53.2826H119.213V51.9492H120.067V53.2826H120.951V53.9411H120.067V56.1931C120.076 56.3313 120.122 56.4354 120.202 56.5021C120.281 56.5687 120.38 56.6029 120.501 56.6029C120.621 56.6029 120.735 56.5801 120.845 56.5362C120.956 56.4923 121.032 56.4598 121.075 56.4387L121.26 57.1134V57.1118Z" fill="#838484"/>
<path d="M125.488 57.3063H124.642V55.0608C124.642 54.6982 124.574 54.4266 124.437 54.2478C124.301 54.0689 124.111 53.9795 123.867 53.9795C123.712 53.9795 123.554 54.0201 123.397 54.1014C123.239 54.1827 123.099 54.2933 122.977 54.4332C122.855 54.573 122.764 54.734 122.702 54.9177V57.3063H121.849V51.6445H122.702V54.0868C122.857 53.8153 123.07 53.6023 123.338 53.4494C123.606 53.2949 123.896 53.2185 124.206 53.2185C124.465 53.2185 124.676 53.2624 124.839 53.3486C125.002 53.4348 125.132 53.5551 125.226 53.7063C125.322 53.8575 125.389 54.0299 125.428 54.225C125.467 54.4201 125.486 54.6299 125.486 54.8543V57.3047L125.488 57.3063Z" fill="#838484"/>
<path d="M128.319 57.383C127.998 57.383 127.711 57.3277 127.459 57.2171C127.205 57.1066 126.985 56.9553 126.8 56.7635C126.615 56.5716 126.47 56.3505 126.369 56.1017C126.268 55.8529 126.218 55.5895 126.218 55.3131C126.218 54.9293 126.306 54.5797 126.481 54.2627C126.657 53.9456 126.904 53.6919 127.221 53.5033C127.54 53.3147 127.906 53.2188 128.319 53.2188C128.732 53.2188 129.115 53.3147 129.424 53.5066C129.732 53.6984 129.971 53.9505 130.141 54.2627C130.312 54.5748 130.397 54.9098 130.397 55.2692C130.397 55.3309 130.394 55.3879 130.389 55.4415C130.384 55.4952 130.379 55.5375 130.372 55.5683H127.115C127.141 55.809 127.211 56.0155 127.325 56.1927C127.439 56.3683 127.587 56.5066 127.767 56.6057C127.948 56.7049 128.14 56.7553 128.341 56.7553C128.574 56.7553 128.792 56.6984 128.997 56.5846C129.202 56.4708 129.34 56.3212 129.411 56.1342L130.14 56.344C130.052 56.5407 129.917 56.7179 129.737 56.8757C129.556 57.0334 129.345 57.157 129.104 57.248C128.863 57.3391 128.602 57.383 128.317 57.383H128.319ZM127.101 55.0106H129.551C129.53 54.7781 129.465 54.5748 129.353 54.4025C129.242 54.2301 129.096 54.0952 128.915 53.996C128.735 53.8968 128.538 53.848 128.327 53.848C128.115 53.848 127.912 53.8968 127.733 53.996C127.554 54.0952 127.408 54.2301 127.296 54.4025C127.182 54.5748 127.117 54.7781 127.102 55.0106H127.101Z" fill="#838484"/>
<path d="M133.366 53.9865C133.041 53.9914 132.75 54.0662 132.493 54.2109C132.237 54.3557 132.055 54.5605 131.946 54.8239V57.3052H131.093V53.2809H131.876V54.1491C132.021 53.876 132.206 53.6548 132.434 53.4857C132.662 53.3183 132.899 53.2256 133.148 53.2109H133.283C133.317 53.2109 133.343 53.2142 133.364 53.2191V53.9865H133.366Z" fill="#838484"/>
<path d="M133.25 58.0592L133.436 57.2608H133.156V56.3145H133.923V57.2608L133.652 58.0592H133.249H133.25Z" fill="#838484"/>
<path d="M136.585 54.5081C136.585 54.1715 136.645 53.843 136.764 53.5194C136.883 53.1959 137.057 52.9016 137.288 52.6349C137.519 52.3682 137.797 52.1568 138.125 51.9991C138.454 51.8414 138.828 51.7617 139.245 51.7617C139.746 51.7617 140.177 51.8739 140.536 52.0999C140.896 52.3243 141.164 52.6138 141.34 52.965L140.657 53.4219C140.559 53.1991 140.431 53.0235 140.273 52.8951C140.115 52.7666 139.943 52.6755 139.758 52.6235C139.572 52.5715 139.39 52.5455 139.215 52.5455C138.93 52.5455 138.68 52.604 138.462 52.7194C138.244 52.8365 138.062 52.9894 137.915 53.1812C137.767 53.3731 137.658 53.5877 137.585 53.8251C137.512 54.0625 137.476 54.3016 137.476 54.539C137.476 54.8072 137.519 55.0642 137.605 55.3064C137.689 55.5503 137.811 55.765 137.969 55.9536C138.127 56.1422 138.312 56.2918 138.527 56.3991C138.741 56.5081 138.977 56.5617 139.236 56.5617C139.416 56.5617 139.603 56.5308 139.793 56.469C139.985 56.4072 140.162 56.3081 140.325 56.1747C140.488 56.0398 140.616 55.869 140.709 55.6625L141.431 56.0658C141.322 56.3406 141.148 56.5731 140.907 56.7633C140.667 56.9552 140.397 57.0999 140.097 57.1975C139.798 57.2951 139.501 57.3455 139.205 57.3455C138.828 57.3455 138.478 57.2642 138.158 57.1016C137.837 56.939 137.559 56.7211 137.323 56.4495C137.088 56.178 136.906 55.8739 136.777 55.5341C136.647 55.1959 136.584 54.8528 136.584 54.5064L136.585 54.5081Z" fill="#838484"/>
<path d="M145.767 57.3063H144.922V55.0608C144.922 54.6982 144.853 54.4266 144.717 54.2478C144.58 54.0689 144.39 53.9795 144.146 53.9795C143.992 53.9795 143.834 54.0201 143.676 54.1014C143.519 54.1827 143.379 54.2933 143.257 54.4332C143.135 54.573 143.044 54.734 142.982 54.9177V57.3063H142.128V51.6445H142.982V54.0868C143.136 53.8153 143.349 53.6023 143.618 53.4494C143.886 53.2949 144.175 53.2185 144.486 53.2185C144.745 53.2185 144.956 53.2624 145.119 53.3486C145.281 53.4364 145.411 53.5551 145.506 53.7063C145.601 53.8575 145.668 54.0299 145.707 54.225C145.746 54.4201 145.766 54.6299 145.766 54.8543V57.3047L145.767 57.3063Z" fill="#838484"/>
<path d="M146.465 56.1326C146.465 55.8757 146.538 55.6529 146.686 55.4594C146.834 55.2675 147.037 55.1196 147.299 55.0139C147.561 54.9082 147.859 54.8561 148.195 54.8561C148.376 54.8561 148.559 54.8708 148.746 54.8984C148.933 54.9261 149.101 54.9667 149.25 55.0187V54.7651C149.25 54.4854 149.166 54.2659 148.995 54.1082C148.824 53.9505 148.579 53.8708 148.258 53.8708C148.031 53.8708 147.816 53.9098 147.615 53.9862C147.413 54.0643 147.198 54.1797 146.971 54.3358L146.691 53.7537C146.95 53.5781 147.216 53.4448 147.489 53.3537C147.763 53.2627 148.05 53.2188 148.35 53.2188C148.893 53.2188 149.319 53.3602 149.629 53.6448C149.94 53.9293 150.094 54.3309 150.094 54.8529V56.3488C150.094 56.4464 150.112 56.5147 150.148 56.5553C150.184 56.596 150.244 56.6188 150.327 56.6236V57.3066C150.249 57.3228 150.18 57.3326 150.122 57.3374C150.062 57.3423 150.011 57.3472 149.971 57.3537C149.784 57.3488 149.645 57.3017 149.551 57.2139C149.458 57.1261 149.403 57.022 149.389 56.9033L149.366 56.6708C149.195 56.8984 148.972 57.074 148.694 57.1976C148.418 57.3212 148.14 57.383 147.86 57.383C147.58 57.383 147.351 57.3277 147.138 57.2171C146.927 57.1066 146.761 56.957 146.642 56.7683C146.524 56.5781 146.463 56.3667 146.463 56.1309L146.465 56.1326ZM149.047 56.383C149.104 56.3114 149.151 56.2431 149.19 56.1765C149.229 56.1098 149.249 56.0496 149.249 55.9927V55.5423C149.104 55.487 148.951 55.4448 148.792 55.4171C148.631 55.3895 148.476 55.3748 148.327 55.3748C148.011 55.3748 147.758 55.4366 147.563 55.5586C147.369 55.6805 147.272 55.848 147.272 56.0627C147.272 56.1797 147.304 56.2903 147.369 56.3944C147.434 56.4984 147.527 56.5846 147.649 56.6529C147.771 56.7212 147.919 56.7553 148.094 56.7553C148.286 56.7553 148.467 56.7179 148.637 56.6448C148.808 56.5716 148.945 56.4838 149.049 56.3813L149.047 56.383Z" fill="#838484"/>
<path d="M154.771 57.3049H153.925V55.0594C153.925 54.6805 153.863 54.4074 153.74 54.235C153.616 54.0643 153.434 53.9781 153.197 53.9781C153.031 53.9781 152.867 54.0204 152.704 54.1033C152.541 54.1879 152.397 54.2984 152.27 54.435C152.143 54.5716 152.049 54.7326 151.987 54.9147V57.3033H151.133V53.2789H151.909V54.0854C152.013 53.9066 152.146 53.7521 152.312 53.6253C152.478 53.4968 152.667 53.3976 152.878 53.3261C153.089 53.2545 153.315 53.2188 153.553 53.2188C153.79 53.2188 153.997 53.2627 154.158 53.3488C154.319 53.4366 154.442 53.5553 154.53 53.7066C154.618 53.8578 154.68 54.0318 154.715 54.2285C154.751 54.4253 154.769 54.635 154.769 54.8545V57.3049H154.771Z" fill="#838484"/>
<path d="M157.369 57.3846C157.094 57.3846 156.844 57.3293 156.616 57.2171C156.389 57.1066 156.193 56.9553 156.031 56.7635C155.868 56.5716 155.743 56.3521 155.655 56.1049C155.567 55.8578 155.524 55.596 155.524 55.3212C155.524 55.0318 155.569 54.7602 155.659 54.5066C155.75 54.2529 155.878 54.0301 156.046 53.835C156.213 53.6415 156.411 53.4903 156.639 53.3814C156.867 53.2724 157.12 53.2188 157.398 53.2188C157.724 53.2188 158.01 53.2935 158.255 53.4431C158.501 53.5927 158.704 53.7927 158.863 54.0399V53.2805H159.616V57.1992C159.616 57.5895 159.522 57.9212 159.333 58.1944C159.145 58.4659 158.888 58.6757 158.561 58.8187C158.236 58.9618 157.87 59.035 157.467 59.035C157.016 59.035 156.644 58.957 156.346 58.8025C156.049 58.648 155.797 58.435 155.59 58.1667L156.063 57.7163C156.229 57.9326 156.433 58.0984 156.676 58.2122C156.92 58.3261 157.184 58.383 157.468 58.383C157.701 58.383 157.915 58.3423 158.112 58.2594C158.309 58.1765 158.467 58.0496 158.585 57.8789C158.704 57.7066 158.764 57.4903 158.764 57.2269V56.6139C158.62 56.8513 158.421 57.0399 158.167 57.1765C157.914 57.3131 157.647 57.3814 157.369 57.3814V57.3846ZM157.649 56.6952C157.777 56.6952 157.902 56.6724 158.021 56.6253C158.14 56.5781 158.25 56.5196 158.351 56.4464C158.452 56.3732 158.538 56.2887 158.611 56.1911C158.683 56.0935 158.735 55.9927 158.766 55.8887V54.8269C158.699 54.6513 158.605 54.4984 158.483 54.37C158.361 54.2415 158.223 54.1391 158.068 54.0643C157.914 53.9895 157.753 53.9521 157.587 53.9521C157.402 53.9521 157.234 53.9927 157.086 54.0724C156.938 54.1521 156.813 54.2578 156.711 54.3911C156.606 54.5228 156.527 54.6708 156.47 54.8366C156.413 55.0025 156.384 55.1732 156.384 55.3488C156.384 55.5244 156.416 55.7017 156.481 55.8643C156.546 56.0269 156.636 56.1716 156.75 56.2984C156.863 56.4253 156.997 56.5228 157.15 56.5927C157.302 56.6627 157.468 56.6968 157.65 56.6968L157.649 56.6952Z" fill="#838484"/>
<path d="M162.48 57.383C162.159 57.383 161.871 57.3277 161.619 57.2171C161.366 57.1066 161.146 56.9553 160.961 56.7635C160.776 56.5716 160.631 56.3505 160.53 56.1017C160.429 55.8529 160.379 55.5895 160.379 55.3131C160.379 54.9293 160.467 54.5797 160.642 54.2627C160.818 53.9456 161.065 53.6919 161.382 53.5033C161.701 53.3147 162.067 53.2188 162.48 53.2188C162.893 53.2188 163.276 53.3147 163.585 53.5066C163.893 53.6984 164.132 53.9505 164.302 54.2627C164.473 54.5748 164.558 54.9098 164.558 55.2692C164.558 55.3309 164.554 55.3879 164.55 55.4415C164.545 55.4952 164.54 55.5375 164.535 55.5683H161.278C161.304 55.809 161.374 56.0155 161.488 56.1927C161.602 56.37 161.75 56.5066 161.93 56.6057C162.11 56.7049 162.302 56.7553 162.504 56.7553C162.737 56.7553 162.954 56.6984 163.159 56.5846C163.364 56.4708 163.502 56.3212 163.574 56.1342L164.302 56.344C164.215 56.5407 164.08 56.7179 163.899 56.8757C163.719 57.0334 163.507 57.157 163.267 57.248C163.026 57.3391 162.764 57.383 162.48 57.383ZM161.262 55.0106H163.712C163.691 54.7781 163.626 54.5748 163.514 54.4025C163.402 54.2301 163.257 54.0952 163.076 53.996C162.896 53.8968 162.699 53.848 162.488 53.848C162.276 53.848 162.073 53.8968 161.894 53.996C161.715 54.0952 161.569 54.2301 161.457 54.4025C161.343 54.5748 161.278 54.7781 161.263 55.0106H161.262Z" fill="#838484"/>
<path d="M167.28 57.3065V51.8008H170.94V52.5683H168.156V54.2122H170.491V54.926H168.156V57.3065H167.28Z" fill="#838484"/>
<path d="M173.244 57.3846C172.923 57.3846 172.636 57.3293 172.384 57.2188C172.132 57.1082 171.912 56.957 171.728 56.7618C171.545 56.5667 171.403 56.3456 171.306 56.0968C171.208 55.848 171.158 55.5862 171.158 55.3098C171.158 55.0334 171.206 54.7553 171.306 54.5066C171.403 54.2578 171.545 54.0366 171.728 53.8415C171.912 53.6464 172.132 53.4952 172.387 53.3846C172.642 53.274 172.928 53.2188 173.244 53.2188C173.559 53.2188 173.85 53.274 174.101 53.3846C174.351 53.4952 174.569 53.648 174.756 53.8415C174.941 54.0366 175.084 54.2578 175.182 54.5066C175.28 54.7553 175.33 55.022 175.33 55.3098C175.33 55.5976 175.281 55.8496 175.182 56.0968C175.084 56.3456 174.943 56.5667 174.759 56.7618C174.575 56.957 174.356 57.1082 174.101 57.2188C173.845 57.3293 173.559 57.3846 173.244 57.3846ZM172.034 55.3033C172.034 55.5635 172.088 55.796 172.197 55.9992C172.306 56.2025 172.45 56.3635 172.631 56.4805C172.811 56.5976 173.013 56.6561 173.236 56.6561C173.458 56.6561 173.675 56.5976 173.857 56.4805C174.037 56.3635 174.182 56.2009 174.291 55.9911C174.4 55.7813 174.454 55.5521 174.454 55.3033C174.454 55.0545 174.4 54.8171 174.291 54.6106C174.182 54.4041 174.036 54.2431 173.854 54.1244C173.67 54.0074 173.467 53.9488 173.245 53.9488C173.024 53.9488 172.813 54.0106 172.632 54.1326C172.452 54.2545 172.307 54.4188 172.198 54.622C172.089 54.8253 172.036 55.0529 172.036 55.3017L172.034 55.3033Z" fill="#838484"/>
<path d="M178.363 53.9865C178.037 53.9914 177.746 54.0662 177.489 54.2109C177.234 54.3557 177.052 54.5605 176.943 54.8239V57.3052H176.089V53.2809H176.873V54.1491C177.018 53.876 177.203 53.6548 177.431 53.4857C177.658 53.3183 177.896 53.2256 178.145 53.2109H178.28C178.314 53.2109 178.34 53.2142 178.361 53.2191V53.9865H178.363Z" fill="#838484"/>
<path d="M180.759 57.383C180.439 57.383 180.151 57.3277 179.899 57.2171C179.645 57.1066 179.426 56.9553 179.241 56.7635C179.055 56.5716 178.91 56.3505 178.81 56.1017C178.709 55.8529 178.658 55.5895 178.658 55.3131C178.658 54.9293 178.746 54.5797 178.922 54.2627C179.097 53.9456 179.345 53.6919 179.662 53.5033C179.98 53.3147 180.346 53.2188 180.759 53.2188C181.172 53.2188 181.556 53.3147 181.865 53.5066C182.174 53.6984 182.411 53.9505 182.582 54.2627C182.753 54.5748 182.837 54.9098 182.837 55.2692C182.837 55.3309 182.834 55.3879 182.829 55.4415C182.824 55.4952 182.819 55.5375 182.813 55.5683H179.556C179.582 55.809 179.652 56.0155 179.766 56.1927C179.88 56.37 180.028 56.5066 180.208 56.6057C180.389 56.7049 180.58 56.7553 180.782 56.7553C181.015 56.7553 181.232 56.6984 181.437 56.5846C181.642 56.4708 181.78 56.3212 181.852 56.1342L182.58 56.344C182.493 56.5407 182.358 56.7179 182.177 56.8757C181.997 57.0334 181.785 57.157 181.545 57.248C181.304 57.3391 181.042 57.383 180.758 57.383H180.759ZM179.541 55.0106H181.992C181.971 54.7781 181.906 54.5748 181.793 54.4025C181.683 54.2301 181.536 54.0952 181.356 53.996C181.176 53.8968 180.979 53.848 180.767 53.848C180.556 53.848 180.353 53.8968 180.174 53.996C179.995 54.0952 179.849 54.2301 179.736 54.4025C179.623 54.5748 179.558 54.7781 179.543 55.0106H179.541Z" fill="#838484"/>
<path d="M184.543 57.3056L183.008 53.2812H183.893L185.041 56.5219L186.203 53.2812H187.018L185.483 57.3056H184.545H184.543Z" fill="#838484"/>
<path d="M189.337 57.383C189.016 57.383 188.728 57.3277 188.476 57.2171C188.224 57.1066 188.003 56.9553 187.818 56.7635C187.632 56.5716 187.488 56.3505 187.387 56.1017C187.286 55.8529 187.236 55.5895 187.236 55.3131C187.236 54.9293 187.324 54.5797 187.499 54.2627C187.675 53.9456 187.922 53.6919 188.241 53.5033C188.559 53.3147 188.924 53.2188 189.338 53.2188C189.753 53.2188 190.135 53.3147 190.444 53.5066C190.753 53.6984 190.99 53.9505 191.161 54.2627C191.332 54.5748 191.416 54.9098 191.416 55.2692C191.416 55.3309 191.413 55.3879 191.408 55.4415C191.403 55.4952 191.398 55.5375 191.392 55.5683H188.135C188.161 55.809 188.231 56.0155 188.345 56.1927C188.458 56.3683 188.606 56.5066 188.787 56.6057C188.967 56.7049 189.159 56.7553 189.361 56.7553C189.593 56.7553 189.811 56.6984 190.016 56.5846C190.221 56.4708 190.359 56.3212 190.431 56.1342L191.159 56.344C191.071 56.5407 190.937 56.7179 190.756 56.8757C190.576 57.0334 190.364 57.157 190.124 57.248C189.883 57.3391 189.621 57.383 189.337 57.383ZM188.119 55.0106H190.569C190.548 54.7781 190.483 54.5748 190.371 54.4025C190.26 54.2301 190.114 54.0952 189.932 53.996C189.751 53.8968 189.554 53.848 189.343 53.848C189.132 53.848 188.928 53.8968 188.75 53.996C188.571 54.0952 188.424 54.2301 188.312 54.4025C188.198 54.5748 188.133 54.7781 188.119 55.0106Z" fill="#838484"/>
<path d="M194.385 53.9865C194.06 53.9914 193.769 54.0662 193.512 54.2109C193.257 54.3557 193.075 54.5605 192.966 54.8239V57.3052H192.112V53.2809H192.896V54.1491C193.041 53.876 193.228 53.6548 193.454 53.4857C193.681 53.3183 193.919 53.2256 194.167 53.2109H194.302C194.337 53.2109 194.363 53.2142 194.384 53.2191V53.9865H194.385Z" fill="#838484"/>
</svg>
